<?xml version="1.0" encoding="utf-8"?>
<!-- Generator: Adobe Illustrator 18.0.0, SVG Export Plug-In . SVG Version: 6.00 Build 0)  -->
<!DOCTYPE svg PUBLIC "-//W3C//DTD SVG 1.1//EN" "http://www.w3.org/Graphics/SVG/1.1/DTD/svg11.dtd">
<svg version="1.1" id="Layer_1" xmlns="http://www.w3.org/2000/svg" xmlns:xlink="http://www.w3.org/1999/xlink" x="0px" y="0px"
	 viewBox="11.6 194.5 1003.1 644.1" enable-background="new 11.6 194.5 1003.1 644.1" xml:space="preserve">
<g id="icomoon-ignore">
</g>
<g>
	<g>
		<path fill="#CFD2D2" d="M377.1,706.5L11.8,563.8v-77.7L492.6,276l-31.2,116.1L151.8,522.8l249.4,94.1L377.1,706.5L377.1,706.5z"/>
	</g>
	<g>
		<polygon fill="#B0B2B2" points="151.8,522.8 163.5,517.9 11.8,486.1 151.8,522.8 		"/>
		<polygon fill="#BFBEBE" points="163.5,517.9 171.3,514.6 11.8,486.1 163.5,517.9 		"/>
		<polygon fill="#CCCBCB" points="171.3,514.6 177.1,512.1 11.8,486.1 171.3,514.6 		"/>
	</g>
	<g>
		<path fill="#E6E7E8" d="M377.1,706.5L11.8,563.8v-77.7l140,36.7l249.4,94.1L377.1,706.5L377.1,706.5z"/>
	</g>
	<g>
		<path fill="#CFD2D2" d="M649.1,384.6l365.8,142.6v77.7L488.2,837.7l32.4-120.9l353.7-148.5l-249.3-94.1L649.1,384.6L649.1,384.6z"
			/>
	</g>
	<polygon fill="#B0B2B2" points="488.2,837.7 496.1,834.2 520.6,716.8 488.2,837.7 	"/>
	<polygon fill="#BFBEBE" points="496.1,834.2 502.2,831.5 520.6,716.8 496.1,834.2 	"/>
	<polygon fill="#CCCBCB" points="502.2,831.4 508.4,828.8 520.6,716.8 502.2,831.4 	"/>
	<g>
		<path fill="#F4F4F4" d="M381.9,838.6l172.4-643.2l106.4-0.9L488.2,837.7L381.9,838.6L381.9,838.6z"/>
	</g>
	<g>
		<path fill="#E6E7E8" d="M649.1,384.6l365.8,142.6v77.7l-140.6-36.7l-249.3-94.1L649.1,384.6L649.1,384.6z"/>
	</g>
	<g>
		<polygon fill="#B0B2B2" points="874.3,568.3 863.1,573 1014.9,604.9 874.3,568.3 		"/>
		<polygon fill="#BFBEBE" points="863.1,573 855.2,576.3 1014.9,604.7 863.1,573 		"/>
		<polygon fill="#CCCBCB" points="855.2,576.3 848.6,579.1 1014.9,604.9 855.2,576.3 		"/>
	</g>
</g>
</svg>
