<?xml version="1.0" encoding="utf-8"?>
<!-- Generator: Adobe Illustrator 18.0.0, SVG Export Plug-In . SVG Version: 6.00 Build 0)  -->
<!DOCTYPE svg PUBLIC "-//W3C//DTD SVG 1.1//EN" "http://www.w3.org/Graphics/SVG/1.1/DTD/svg11.dtd">
<svg version="1.1" id="Layer_1" xmlns="http://www.w3.org/2000/svg" xmlns:xlink="http://www.w3.org/1999/xlink" x="0px" y="0px"
	 viewBox="0 0 11.6 7.8" style="enable-background:new 0 0 11.6 7.8;" xml:space="preserve">
<g>
	<path style="fill:#D0D2D2;" d="M4.4,6.2L0,4.4l0-0.9L5.8,1L5.5,2.4L1.7,3.9l3,1.2L4.4,6.2z"/>
</g>
<g>
	<path style="fill:#E6E7E8;" d="M4.4,6.2L0,4.4l0-0.9l1.7,0.5l3,1.2L4.4,6.2z"/>
</g>
<g>
	<path style="fill:#D0D2D2;" d="M7.2,2.5l4.4,1.8l0,0.9L5.5,7.7l0.4-1.4l4-1.6l-3-1.2L7.2,2.5z"/>
</g>
<g>
	<path style="fill:#F4F4F4;" d="M7.7,0L5.5,7.7l-1.4,0L6.3,0L7.7,0z"/>
</g>
<g>
	<path style="fill:#E6E7E8;" d="M7.2,2.5l4.4,1.8l0,0.9L9.9,4.7l-3-1.2L7.2,2.5z"/>
</g>
<polygon style="fill:#B1B3B3;" points="9.9,4.7 9.7,4.8 11.6,5.1 "/>
<polygon style="fill:#B1B3B3;" points="1.7,3.9 1.8,3.9 0,3.5 "/>
<polygon style="fill:#B1B3B3;" points="6,6.3 5.9,6.3 5.5,7.7 "/>
</svg>
