<?xml version="1.0" encoding="utf-8"?>
<!-- Generated by IcoMoon.io -->
<!DOCTYPE svg PUBLIC "-//W3C//DTD SVG 1.1//EN" "http://www.w3.org/Graphics/SVG/1.1/DTD/svg11.dtd">
<svg version="1.1" xmlns="http://www.w3.org/2000/svg" xmlns:xlink="http://www.w3.org/1999/xlink" width="25" height="25" viewBox="0 0 25 25">
<path fill="#444444" d="M22.624 0h-20.247c-1.331 0-2.376 1.046-2.376 2.376v20.152c0 1.331 1.046 2.376 2.376 2.376h20.152c1.331 0 2.376-1.046 2.376-2.376v-20.152c0.095-1.331-1.046-2.376-2.281-2.376zM2.186 13.498v-1.616l9.886-4.278-0.665 2.376-6.369 2.662 5.133 1.901-0.475 1.806-7.509-2.852zM22.814 14.259l-10.836 4.753h-2.186l3.517-13.118h2.186l-2.852 10.741 7.224-3.042-5.133-1.901 0.475-1.806 7.509 2.947v1.426z"></path>
</svg>
