<svg version="1.1" xmlns="http://www.w3.org/2000/svg" width="32" height="32" viewBox="0 0 32 32"><path fill="#444" d="M8.07 13.954l-4.578-7.93C6.424 2.35 10.937 0 16 0c5.857 0 10.978 3.148 13.767 7.844H16.712c-.235-.02-.472-.03-.71-.03-3.81 0-7.02 2.613-7.93 6.14zm13.658-3.798h9.17C31.61 11.966 32 13.936 32 16c0 8.776-7.066 15.9-15.818 15.998l6.544-11.334c.92-1.324 1.462-2.932 1.462-4.664 0-2.287-.943-4.357-2.46-5.844zM10.188 16c0-3.205 2.607-5.813 5.813-5.813s5.814 2.607 5.814 5.813c0 3.205-2.608 5.813-5.813 5.813S10.19 19.205 10.19 16zm8.005 7.89l-4.58 7.933C5.907 30.67-.002 24.026-.002 16c0-2.85.745-5.525 2.052-7.844L8.584 19.47c1.308 2.785 4.14 4.718 7.415 4.718.758 0 1.494-.104 2.192-.3z"/></svg>