<svg version="1.1" xmlns="http://www.w3.org/2000/svg" width="32" height="32" viewBox="0 0 32 32"><path fill="#444" d="M11.366 22.564l1.29-1.807-1.413-1.414-1.807 1.29c-.335-.186-.694-.336-1.07-.443L8 18H6l-.365 2.19c-.377.107-.736.256-1.07.444l-1.808-1.29-1.414 1.413 1.29 1.807c-.186.335-.336.694-.442 1.07L0 24v2l2.19.365c.108.377.257.736.445 1.07l-1.29 1.808 1.413 1.414 1.807-1.29c.335.186.694.336 1.07.443L6.002 32h2l.366-2.19c.377-.107.736-.256 1.07-.444l1.808 1.29 1.414-1.413-1.29-1.807c.186-.335.336-.694.443-1.07L14 26v-2l-2.19-.365c-.106-.377-.255-.736-.443-1.07zM7 27c-1.105 0-2-.895-2-2s.895-2 2-2 2 .895 2 2-.895 2-2 2zm25-15v-2l-2.106-.383c-.04-.25-.088-.5-.148-.743l1.8-1.16-.766-1.847-2.092.452c-.132-.217-.273-.427-.422-.63l1.22-1.76-1.415-1.415-1.76 1.22c-.203-.15-.413-.29-.63-.423l.453-2.092-1.848-.765-1.16 1.8c-.243-.06-.49-.11-.742-.15L22 0h-2l-.383 2.106c-.25.04-.5.088-.743.148l-1.16-1.8-1.847.766.452 2.092c-.217.132-.427.273-.63.422l-1.76-1.22-1.415 1.415 1.22 1.76c-.15.203-.29.413-.423.63l-2.092-.453-.765 1.848 1.8 1.16c-.06.243-.11.49-.15.742L10 10v2l2.106.383c.04.25.088.5.148.743l-1.8 1.16.766 1.847 2.092-.452c.132.217.273.427.422.63l-1.22 1.76 1.415 1.415 1.76-1.22c.203.15.413.29.63.423l-.453 2.092 1.848.765 1.16-1.8c.243.06.49.11.742.15L20 22h2l.383-2.106c.25-.04.5-.088.743-.148l1.16 1.8 1.847-.766-.452-2.092c.217-.132.427-.273.63-.422l1.76 1.22 1.415-1.415-1.22-1.76c.15-.203.29-.413.423-.63l2.092.453.765-1.848-1.8-1.16c.06-.243.11-.49.15-.742L32 12zm-11 3.35c-2.402 0-4.35-1.948-4.35-4.35S18.598 6.65 21 6.65s4.35 1.948 4.35 4.35c0 2.402-1.948 4.35-4.35 4.35z"/></svg>