<svg version="1.1" xmlns="http://www.w3.org/2000/svg" width="32" height="32" viewBox="0 0 32 32"><path fill="#444" d="M31.954 10.442l-.37 2.377s-.53-4.403-1.18-6.048c-.995-2.52-1.438-2.5-1.44-2.498.666 1.694.545 2.604.545 2.604s-1.182-3.22-4.304-4.243c-3.46-1.134-5.33-.824-5.547-.765h-.096l.076.007s-.003 0-.003.002c.014.016 3.822.665 4.497 1.593 0 0-1.617 0-3.227.464-.073.02 5.923.75 7.148 6.74 0 0-.657-1.37-1.47-1.604.535 1.626.397 4.712-.112 6.245-.066.197-.133-.853-1.135-1.305.32 2.3-.02 5.952-1.616 6.957-.124.078 1-3.603.226-2.18-4.46 6.838-9.73 3.155-12.1 1.535 1.214.264 3.52-.04 4.54-.8l.004-.003c1.108-.758 1.765-1.31 2.354-1.18s.982-.46.524-.985c-.46-.526-1.572-1.25-3.08-.855-1.062.278-2.378 1.454-4.388.264-1.543-.914-1.688-1.673-1.702-2.2.038-.185.086-.36.143-.52.178-.495.716-.645 1.015-.763.508.087.946.246 1.405.48.006-.152.008-.355 0-.585.043-.088.016-.352-.055-.674-.04-.322-.107-.655-.21-.96h.005l.007-.007v-.002c.004-.004.006-.008.007-.015.032-.144.376-.423.804-.722.384-.268.835-.553 1.19-.774.315-.195.555-.34.606-.378l.068-.05.014-.012.01-.007c.168-.135.42-.39.473-.924V8.65c.003-.017.004-.033.005-.05l.002-.033V8.54c.002-.02.003-.043.003-.065V8.47c0-.05 0-.105-.003-.162-.002-.032-.004-.06-.01-.086v-.004c0-.003 0-.005-.002-.008 0-.005-.002-.01-.004-.013l-.005-.015c-.055-.13-.26-.178-1.108-.192h-.002c-.346-.006-.798-.006-1.39-.004-1.04.004-1.614-1.016-1.798-1.41.25-1.39.977-2.38 2.17-3.05.023-.014.018-.024-.01-.032.234-.14-2.82-.004-4.224 1.782-1.247-.31-2.333-.29-3.27-.07-.18-.004-.403-.026-.67-.082-.622-.564-1.513-1.606-1.56-2.85l-.01.006v-.036S1.794 3.702 2.078 7.678l-.005.184c-.514.696-.768 1.282-.787 1.41-.455.927-.917 2.32-1.292 4.438 0 0 .263-.833.79-1.777C.398 13.12.093 14.97.272 17.74c0 0 .047-.614.215-1.5.13 1.72.704 3.842 2.152 6.338 2.78 4.79 7.05 7.21 11.774 7.582.84.07 1.69.07 2.544.006.08-.006.157-.01.236-.018.968-.068 1.942-.214 2.914-.45C33.395 26.49 31.95 10.444 31.95 10.444z"/></svg>