<svg version="1.1" xmlns="http://www.w3.org/2000/svg" width="32" height="32" viewBox="0 0 32 32"><path fill="#444" d="M22.944 19.65h7.377c.058-.51.08-1.033.08-1.568 0-2.507-.672-4.858-1.847-6.883 1.215-3.23 1.172-5.97-.455-7.607-1.547-1.54-5.697-1.29-10.388.787-.347-.026-.697-.04-1.05-.04-6.44 0-11.842 4.43-13.336 10.402 2.02-2.586 4.145-4.46 6.984-5.826-.258.242-1.764 1.74-2.018 1.993C.804 18.392-1.557 28.17.984 30.71c1.93 1.93 5.43 1.603 9.45-.365 1.868.952 3.983 1.488 6.225 1.488 6.034 0 11.15-3.885 13.002-9.295H22.23c-1.024 1.887-3.024 3.17-5.32 3.17s-4.296-1.283-5.32-3.17c-.454-.852-.715-1.83-.715-2.864v-.023h12.07zm-12.06-3.625c.17-3.035 2.694-5.456 5.774-5.456s5.604 2.42 5.774 5.455H10.884zM28.03 5.12c1.048 1.058 1.02 3.006.125 5.437-1.535-2.34-3.766-4.186-6.4-5.24 2.816-1.206 5.106-1.366 6.274-.198zM2.92 30.226c-1.336-1.337-.933-4.144.79-7.526 1.07 3.01 3.16 5.535 5.853 7.162-2.982 1.354-5.423 1.584-6.643.365z"/></svg>