<svg version="1.1" xmlns="http://www.w3.org/2000/svg" x="0" y="0" viewBox="0 0 11.6 7.8" xml:space="preserve"><path d="M4.4 6.2L0 4.4v-.9L5.8 1l-.3 1.4-3.8 1.5 3 1.2-.3 1.1z" fill="#D0D2D2"/><path d="M4.4 6.2L0 4.4v-.9l1.7.5 3 1.2-.3 1z" fill="#E6E7E8"/><path d="M7.2 2.5l4.4 1.8v.9L5.5 7.7l.4-1.4 4-1.6-3-1.2.3-1z" fill="#D0D2D2"/><path d="M7.7 0L5.5 7.7H4.1L6.3 0h1.4z" fill="#F4F4F4"/><path d="M7.2 2.5l4.4 1.8v.9l-1.7-.5-3-1.2.3-1z" fill="#E6E7E8"/><path fill="#B1B3B3" d="M9.9 4.7l-.2.1 1.9.3M1.7 3.9h.1L0 3.5M6 6.3h-.1l-.4 1.4"/></svg>