<svg version="1.1" xmlns="http://www.w3.org/2000/svg" width="40" height="32" viewBox="0 0 40 32"><path fill="#444" d="M38.5 0h-12c-.825 0-1.977.477-2.56 1.06L9.06 15.94c-.583.583-.583 1.538 0 2.12l12.88 12.88c.582.583 1.537.583 2.12 0l14.88-14.88C39.52 15.48 40 14.326 40 13.5v-12c0-.825-.675-1.5-1.5-1.5zM31 12c-1.657 0-3-1.343-3-3s1.343-3 3-3 3 1.343 3 3-1.343 3-3 3z"/><path fill="#444" d="M4 17L21 0h-2.5c-.825 0-1.977.477-2.56 1.06L1.06 15.94c-.583.583-.583 1.538 0 2.12l12.88 12.88c.582.583 1.537.583 2.12 0L17 30 4 17z"/></svg>