<svg version="1.1" xmlns="http://www.w3.org/2000/svg" width="32" height="32" viewBox="0 0 32 32"><path fill="#444" d="M29 13c-.888 0-1.686.386-2.236 1h-5.936l4.197-4.197c.822.046 1.66-.245 2.288-.874 1.172-1.173 1.172-3.072 0-4.244s-3.07-1.172-4.243 0c-.628.628-.92 1.466-.874 2.288L18 11.17V5.236c.613-.55 1-1.347 1-2.236 0-1.658-1.344-3-3-3s-3 1.342-3 3c0 .887.385 1.685 1 2.235v5.936L9.8 6.975c.045-.822-.245-1.66-.874-2.288-1.172-1.172-3.07-1.172-4.243 0s-1.172 3.07 0 4.243c.628.627 1.466.918 2.288.873L11.17 14H5.234c-.55-.614-1.347-1-2.236-1-1.657 0-3 1.343-3 3s1.343 3 3 3c.888 0 1.686-.386 2.236-1h5.936l-4.197 4.197c-.822-.046-1.66.245-2.288.874-1.172 1.173-1.172 3.072 0 4.244s3.07 1.172 4.243 0c.628-.628.92-1.466.874-2.288L14 20.83v5.935c-.615.55-1 1.347-1 2.235 0 1.657 1.342 3 3 3s3-1.343 3-3c0-.888-.387-1.686-1-2.236v-5.936l4.196 4.197c-.046.822.245 1.66.874 2.288 1.172 1.172 3.07 1.172 4.243 0s1.172-3.07 0-4.243c-.628-.628-1.466-.92-2.288-.874L20.828 18h5.936c.55.613 1.347 1 2.235 1 1.656 0 3-1.344 3-3s-1.344-3-3-3z"/></svg>