<svg version="1.1" xmlns="http://www.w3.org/2000/svg" x="0" y="0" viewBox="11.6 194.5 1003.1 644.1" xml:space="preserve"><path fill="#CFD2D2" d="M377.1 706.5L11.8 563.8v-77.7L492.6 276l-31.2 116.1-309.6 130.7 249.4 94.1-24.1 89.6z"/><path fill="#B0B2B2" d="M151.8 522.8l11.7-4.9-151.7-31.8 140 36.7"/><path fill="#BFBEBE" d="M163.5 517.9l7.8-3.3-159.5-28.5 151.7 31.8"/><path fill="#CCCBCB" d="M171.3 514.6l5.8-2.5-165.3-26 159.5 28.5"/><path fill="#E6E7E8" d="M377.1 706.5L11.8 563.8v-77.7l140 36.7 249.4 94.1-24.1 89.6z"/><path fill="#CFD2D2" d="M649.1 384.6l365.8 142.6v77.7L488.2 837.7l32.4-120.9 353.7-148.5L625 474.2l24.1-89.6z"/><path fill="#B0B2B2" d="M488.2 837.7l7.9-3.5 24.5-117.4-32.4 120.9"/><path fill="#BFBEBE" d="M496.1 834.2l6.1-2.7 18.4-114.7-24.5 117.4"/><path fill="#CCCBCB" d="M502.2 831.4l6.2-2.6 12.2-112-18.4 114.6"/><path fill="#F4F4F4" d="M381.9 838.6l172.4-643.2 106.4-.9-172.5 643.2-106.3.9z"/><g><path fill="#E6E7E8" d="M649.1 384.6l365.8 142.6v77.7l-140.6-36.7L625 474.1l24.1-89.5z"/></g><g><path fill="#B0B2B2" d="M874.3 568.3l-11.2 4.7 151.8 31.9-140.6-36.6"/><path fill="#BFBEBE" d="M863.1 573l-7.9 3.3 159.7 28.4L863.1 573"/><path fill="#CCCBCB" d="M855.2 576.3l-6.6 2.8 166.3 25.8-159.7-28.6"/></g></svg>